<svg xmlns="http://www.w3.org/2000/svg" xmlns:xlink="http://www.w3.org/1999/xlink" width="200" height="70" zoomAndPan="magnify" preserveAspectRatio="xMidYMid meet" version="1.0" viewBox="16.35 121.6 322.02 132.01"><defs><g/><clipPath id="fa549b29b0"><path d="M 16.347656 133 L 84 133 L 84 227 L 16.347656 227 Z M 16.347656 133 " clip-rule="nonzero"/></clipPath><clipPath id="91122e31d5"><path d="M 90 121.601562 L 94.347656 121.601562 L 94.347656 253.601562 L 90 253.601562 Z M 90 121.601562 " clip-rule="nonzero"/></clipPath></defs><g clip-path="url(#fa549b29b0)"><path fill="#000000" d="M 16.398438 157.363281 L 16.398438 217.507812 C 16.398438 222.226562 20.257812 226.089844 24.972656 226.089844 L 54.855469 226.089844 C 50.109375 219.902344 47.292969 212.164062 47.292969 203.765625 C 47.292969 183.496094 63.714844 167.0625 83.976562 167.0625 L 83.976562 133.332031 L 70.796875 133.332031 C 67.917969 133.332031 65.253906 134.871094 63.816406 137.363281 L 57.226562 148.785156 L 24.972656 148.785156 C 20.257812 148.785156 16.398438 152.644531 16.398438 157.363281 Z M 26.449219 157.464844 C 26.449219 156.78125 27.011719 156.222656 27.691406 156.222656 L 47.179688 156.222656 C 47.863281 156.222656 48.421875 156.785156 48.421875 157.464844 L 48.421875 162.445312 C 48.421875 163.128906 47.859375 163.6875 47.179688 163.6875 L 27.695312 163.6875 C 27.011719 163.6875 26.453125 163.125 26.453125 162.445312 L 26.453125 157.464844 Z M 26.449219 157.464844 " fill-opacity="1" fill-rule="nonzero"/></g><path fill="#000000" d="M 80.359375 179.707031 C 79.230469 179.871094 78.128906 180.113281 77.054688 180.433594 C 80.039062 182.410156 82.011719 185.804688 82.011719 189.65625 C 82.011719 195.761719 77.0625 200.710938 70.960938 200.710938 C 66.859375 200.710938 63.28125 198.472656 61.375 195.152344 C 60.820312 196.667969 60.414062 198.261719 60.171875 199.902344 C 58.003906 214.804688 69.496094 227.59375 83.972656 227.59375 L 83.972656 234.582031 C 75.679688 234.582031 67.882812 231.351562 62.019531 225.484375 C 56.15625 219.621094 52.929688 211.820312 52.929688 203.523438 C 52.929688 195.222656 56.15625 187.421875 62.019531 181.558594 C 67.882812 175.691406 75.679688 172.460938 83.972656 172.460938 L 83.972656 179.449219 C 82.785156 179.441406 81.578125 179.527344 80.359375 179.707031 Z M 80.359375 179.707031 " fill-opacity="1" fill-rule="nonzero"/><g clip-path="url(#91122e31d5)"><path fill="#000000" d="M 90.863281 121.601562 L 94.296875 121.601562 L 94.296875 253.609375 L 90.863281 253.609375 Z M 90.863281 121.601562 " fill-opacity="1" fill-rule="nonzero"/></g><g fill="#000000" fill-opacity="1"><g transform="translate(94.271132, 190.507641)"><g><path d="M 21.171875 -41.6875 L 21.171875 -11.78125 C 21.171875 -7.695312 20.050781 -4.582031 17.8125 -2.4375 C 15.570312 -0.300781 12.363281 0.765625 8.1875 0.765625 C 7.070312 0.765625 5.972656 0.628906 4.890625 0.359375 C 3.816406 0.0859375 2.910156 -0.238281 2.171875 -0.625 C 1.429688 -1.019531 0.765625 -1.414062 0.171875 -1.8125 C -0.410156 -2.21875 -0.835938 -2.554688 -1.109375 -2.828125 L -1.5625 -3.234375 L 1.46875 -11.171875 C 3.457031 -9.285156 5.257812 -8.34375 6.875 -8.34375 C 8.320312 -8.34375 9.484375 -8.820312 10.359375 -9.78125 C 11.234375 -10.738281 11.671875 -12.210938 11.671875 -14.203125 L 11.671875 -41.6875 Z M 21.171875 -41.6875 "/></g></g></g><g fill="#000000" fill-opacity="1"><g transform="translate(115.894643, 190.507641)"><g><path d="M 29.25 -11.71875 L 10.453125 -11.71875 C 10.453125 -9.90625 11.039062 -8.554688 12.21875 -7.671875 C 13.40625 -6.796875 14.6875 -6.359375 16.0625 -6.359375 C 17.507812 -6.359375 18.65625 -6.550781 19.5 -6.9375 C 20.34375 -7.332031 21.304688 -8.101562 22.390625 -9.25 L 28.859375 -6.015625 C 26.160156 -1.492188 21.675781 0.765625 15.40625 0.765625 C 11.5 0.765625 8.144531 -0.570312 5.34375 -3.25 C 2.550781 -5.9375 1.15625 -9.164062 1.15625 -12.9375 C 1.15625 -16.707031 2.550781 -19.941406 5.34375 -22.640625 C 8.144531 -25.335938 11.5 -26.6875 15.40625 -26.6875 C 19.519531 -26.6875 22.863281 -25.5 25.4375 -23.125 C 28.019531 -20.75 29.3125 -17.351562 29.3125 -12.9375 C 29.3125 -12.332031 29.289062 -11.925781 29.25 -11.71875 Z M 10.71875 -16.671875 L 20.5625 -16.671875 C 20.363281 -18.023438 19.832031 -19.0625 18.96875 -19.78125 C 18.113281 -20.507812 17.015625 -20.875 15.671875 -20.875 C 14.179688 -20.875 13 -20.484375 12.125 -19.703125 C 11.25 -18.929688 10.78125 -17.921875 10.71875 -16.671875 Z M 10.71875 -16.671875 "/></g></g></g><g fill="#000000" fill-opacity="1"><g transform="translate(144.288319, 190.507641)"><g><path d="M 3.03125 0 L 3.03125 -43.453125 L 11.96875 -43.453125 L 11.96875 -23.1875 L 12.078125 -23.1875 C 14.398438 -25.519531 16.875 -26.6875 19.5 -26.6875 C 20.78125 -26.6875 22.050781 -26.515625 23.3125 -26.171875 C 24.582031 -25.835938 25.796875 -25.316406 26.953125 -24.609375 C 28.117188 -23.898438 29.0625 -22.894531 29.78125 -21.59375 C 30.507812 -20.300781 30.875 -18.796875 30.875 -17.078125 L 30.875 0 L 21.9375 0 L 21.9375 -14.65625 C 21.9375 -16 21.503906 -17.175781 20.640625 -18.1875 C 19.785156 -19.195312 18.664062 -19.703125 17.28125 -19.703125 C 15.9375 -19.703125 14.710938 -19.179688 13.609375 -18.140625 C 12.515625 -17.097656 11.96875 -15.9375 11.96875 -14.65625 L 11.96875 0 Z M 3.03125 0 "/></g></g></g><g fill="#000000" fill-opacity="1"><g transform="translate(175.612371, 190.507641)"><g><path d="M 5.46875 -3.078125 C 2.59375 -5.640625 1.15625 -8.925781 1.15625 -12.9375 C 1.15625 -16.945312 2.65625 -20.238281 5.65625 -22.8125 C 8.65625 -25.394531 12.363281 -26.6875 16.78125 -26.6875 C 21.125 -26.6875 24.785156 -25.390625 27.765625 -22.796875 C 30.742188 -20.203125 32.234375 -16.914062 32.234375 -12.9375 C 32.234375 -8.957031 30.773438 -5.675781 27.859375 -3.09375 C 24.953125 -0.519531 21.257812 0.765625 16.78125 0.765625 C 12.125 0.765625 8.351562 -0.515625 5.46875 -3.078125 Z M 12.40625 -17.328125 C 11.238281 -16.179688 10.65625 -14.71875 10.65625 -12.9375 C 10.65625 -11.15625 11.210938 -9.695312 12.328125 -8.5625 C 13.441406 -7.4375 14.90625 -6.875 16.71875 -6.875 C 18.476562 -6.875 19.921875 -7.445312 21.046875 -8.59375 C 22.171875 -9.738281 22.734375 -11.1875 22.734375 -12.9375 C 22.734375 -14.71875 22.148438 -16.179688 20.984375 -17.328125 C 19.828125 -18.472656 18.40625 -19.046875 16.71875 -19.046875 C 15.007812 -19.046875 13.570312 -18.472656 12.40625 -17.328125 Z M 12.40625 -17.328125 "/></g></g></g><g fill="#000000" fill-opacity="1"><g transform="translate(206.936417, 190.507641)"><g><path d="M 9.59375 -25.921875 L 15.921875 -11.828125 L 22.234375 -25.921875 L 32.84375 -25.921875 L 18.953125 0 L 12.890625 0 L -1.015625 -25.921875 Z M 9.59375 -25.921875 "/></g></g></g><g fill="#000000" fill-opacity="1"><g transform="translate(236.694227, 190.507641)"><g><path d="M 4.796875 -3.203125 C 2.367188 -5.847656 1.15625 -9.09375 1.15625 -12.9375 C 1.15625 -16.78125 2.367188 -20.03125 4.796875 -22.6875 C 7.222656 -25.351562 10.304688 -26.6875 14.046875 -26.6875 C 17.484375 -26.6875 20.3125 -25.609375 22.53125 -23.453125 L 22.53125 -25.921875 L 31.484375 -25.921875 L 31.484375 0 L 22.640625 0 L 22.640625 -2.9375 L 22.53125 -2.9375 C 20.3125 -0.46875 17.484375 0.765625 14.046875 0.765625 C 10.304688 0.765625 7.222656 -0.554688 4.796875 -3.203125 Z M 12.40625 -17.328125 C 11.238281 -16.179688 10.65625 -14.71875 10.65625 -12.9375 C 10.65625 -11.15625 11.210938 -9.695312 12.328125 -8.5625 C 13.441406 -7.4375 14.90625 -6.875 16.71875 -6.875 C 18.476562 -6.875 19.921875 -7.445312 21.046875 -8.59375 C 22.171875 -9.738281 22.734375 -11.1875 22.734375 -12.9375 C 22.734375 -14.71875 22.148438 -16.179688 20.984375 -17.328125 C 19.828125 -18.472656 18.40625 -19.046875 16.71875 -19.046875 C 15.007812 -19.046875 13.570312 -18.472656 12.40625 -17.328125 Z M 12.40625 -17.328125 "/></g></g></g><g fill="#000000" fill-opacity="1"><g transform="translate(269.129794, 190.507641)"><g><path d="M 3.03125 0 L 3.03125 -43.453125 L 11.96875 -43.453125 L 11.96875 -23.1875 L 12.078125 -23.1875 C 14.398438 -25.519531 16.875 -26.6875 19.5 -26.6875 C 20.78125 -26.6875 22.050781 -26.515625 23.3125 -26.171875 C 24.582031 -25.835938 25.796875 -25.316406 26.953125 -24.609375 C 28.117188 -23.898438 29.0625 -22.894531 29.78125 -21.59375 C 30.507812 -20.300781 30.875 -18.796875 30.875 -17.078125 L 30.875 0 L 21.9375 0 L 21.9375 -14.65625 C 21.9375 -16 21.503906 -17.175781 20.640625 -18.1875 C 19.785156 -19.195312 18.664062 -19.703125 17.28125 -19.703125 C 15.9375 -19.703125 14.710938 -19.179688 13.609375 -18.140625 C 12.515625 -17.097656 11.96875 -15.9375 11.96875 -14.65625 L 11.96875 0 Z M 3.03125 0 "/></g></g></g><g fill="#000000" fill-opacity="1"><g transform="translate(94.581884, 212.005127)"><g><path d="M 2.03125 -11.5 L 8.078125 -11.5 C 8.203125 -11.5 8.3125 -11.453125 8.40625 -11.359375 C 8.507812 -11.273438 8.5625 -11.160156 8.5625 -11.015625 C 8.5625 -10.867188 8.507812 -10.75 8.40625 -10.65625 C 8.3125 -10.570312 8.203125 -10.53125 8.078125 -10.53125 L 2.421875 -10.53125 L 2.578125 -10.8125 L 2.578125 -6.203125 L 2.40625 -6.40625 L 7.328125 -6.40625 C 7.460938 -6.40625 7.578125 -6.351562 7.671875 -6.25 C 7.773438 -6.15625 7.828125 -6.046875 7.828125 -5.921875 C 7.828125 -5.773438 7.773438 -5.65625 7.671875 -5.5625 C 7.578125 -5.476562 7.460938 -5.4375 7.328125 -5.4375 L 2.4375 -5.4375 L 2.578125 -5.609375 L 2.578125 -0.875 L 2.5 -0.96875 L 8.078125 -0.96875 C 8.203125 -0.96875 8.3125 -0.914062 8.40625 -0.8125 C 8.507812 -0.71875 8.5625 -0.609375 8.5625 -0.484375 C 8.5625 -0.335938 8.507812 -0.21875 8.40625 -0.125 C 8.3125 -0.0390625 8.203125 0 8.078125 0 L 2.03125 0 C 1.90625 0 1.789062 -0.046875 1.6875 -0.140625 C 1.59375 -0.242188 1.546875 -0.363281 1.546875 -0.5 L 1.546875 -11.015625 C 1.546875 -11.140625 1.59375 -11.25 1.6875 -11.34375 C 1.789062 -11.445312 1.90625 -11.5 2.03125 -11.5 Z M 2.03125 -11.5 "/></g></g></g><g fill="#000000" fill-opacity="1"><g transform="translate(113.192406, 212.005127)"><g><path d="M 9.96875 -11.5 C 10.101562 -11.5 10.210938 -11.457031 10.296875 -11.375 C 10.378906 -11.289062 10.421875 -11.179688 10.421875 -11.046875 L 10.421875 -0.53125 C 10.421875 -0.363281 10.367188 -0.234375 10.265625 -0.140625 C 10.160156 -0.046875 10.039062 0 9.90625 0 C 9.84375 0 9.769531 -0.0078125 9.6875 -0.03125 C 9.613281 -0.0625 9.554688 -0.109375 9.515625 -0.171875 L 2.1875 -10.046875 L 2.46875 -10.1875 L 2.46875 -0.4375 C 2.46875 -0.320312 2.421875 -0.21875 2.328125 -0.125 C 2.242188 -0.0390625 2.132812 0 2 0 C 1.863281 0 1.753906 -0.0390625 1.671875 -0.125 C 1.585938 -0.21875 1.546875 -0.320312 1.546875 -0.4375 L 1.546875 -11.015625 C 1.546875 -11.179688 1.59375 -11.300781 1.6875 -11.375 C 1.789062 -11.457031 1.898438 -11.5 2.015625 -11.5 C 2.085938 -11.5 2.160156 -11.484375 2.234375 -11.453125 C 2.304688 -11.429688 2.367188 -11.390625 2.421875 -11.328125 L 9.671875 -1.5625 L 9.5 -1.265625 L 9.5 -11.046875 C 9.5 -11.179688 9.546875 -11.289062 9.640625 -11.375 C 9.734375 -11.457031 9.84375 -11.5 9.96875 -11.5 Z M 9.96875 -11.5 "/></g></g></g><g fill="#000000" fill-opacity="1"><g transform="translate(134.433197, 212.005127)"><g><path d="M 4.96875 0 C 4.8125 0 4.6875 -0.046875 4.59375 -0.140625 C 4.5 -0.242188 4.453125 -0.363281 4.453125 -0.5 L 4.453125 -10.96875 L 5.46875 -10.96875 L 5.46875 -0.5 C 5.46875 -0.363281 5.414062 -0.242188 5.3125 -0.140625 C 5.21875 -0.046875 5.101562 0 4.96875 0 Z M 1.046875 -10.5625 C 0.921875 -10.5625 0.804688 -10.601562 0.703125 -10.6875 C 0.609375 -10.78125 0.5625 -10.898438 0.5625 -11.046875 C 0.5625 -11.179688 0.609375 -11.289062 0.703125 -11.375 C 0.804688 -11.457031 0.921875 -11.5 1.046875 -11.5 L 8.875 -11.5 C 9.007812 -11.5 9.125 -11.457031 9.21875 -11.375 C 9.320312 -11.289062 9.375 -11.175781 9.375 -11.03125 C 9.375 -10.882812 9.320312 -10.769531 9.21875 -10.6875 C 9.125 -10.601562 9.007812 -10.5625 8.875 -10.5625 Z M 1.046875 -10.5625 "/></g></g></g><g fill="#000000" fill-opacity="1"><g transform="translate(153.635532, 212.005127)"><g><path d="M 2.03125 -11.5 L 8.078125 -11.5 C 8.203125 -11.5 8.3125 -11.453125 8.40625 -11.359375 C 8.507812 -11.273438 8.5625 -11.160156 8.5625 -11.015625 C 8.5625 -10.867188 8.507812 -10.75 8.40625 -10.65625 C 8.3125 -10.570312 8.203125 -10.53125 8.078125 -10.53125 L 2.421875 -10.53125 L 2.578125 -10.8125 L 2.578125 -6.203125 L 2.40625 -6.40625 L 7.328125 -6.40625 C 7.460938 -6.40625 7.578125 -6.351562 7.671875 -6.25 C 7.773438 -6.15625 7.828125 -6.046875 7.828125 -5.921875 C 7.828125 -5.773438 7.773438 -5.65625 7.671875 -5.5625 C 7.578125 -5.476562 7.460938 -5.4375 7.328125 -5.4375 L 2.4375 -5.4375 L 2.578125 -5.609375 L 2.578125 -0.875 L 2.5 -0.96875 L 8.078125 -0.96875 C 8.203125 -0.96875 8.3125 -0.914062 8.40625 -0.8125 C 8.507812 -0.71875 8.5625 -0.609375 8.5625 -0.484375 C 8.5625 -0.335938 8.507812 -0.21875 8.40625 -0.125 C 8.3125 -0.0390625 8.203125 0 8.078125 0 L 2.03125 0 C 1.90625 0 1.789062 -0.046875 1.6875 -0.140625 C 1.59375 -0.242188 1.546875 -0.363281 1.546875 -0.5 L 1.546875 -11.015625 C 1.546875 -11.140625 1.59375 -11.25 1.6875 -11.34375 C 1.789062 -11.445312 1.90625 -11.5 2.03125 -11.5 Z M 2.03125 -11.5 "/></g></g></g><g fill="#000000" fill-opacity="1"><g transform="translate(172.246051, 212.005127)"><g><path d="M 2.109375 0 C 1.941406 0 1.804688 -0.046875 1.703125 -0.140625 C 1.597656 -0.242188 1.546875 -0.363281 1.546875 -0.5 L 1.546875 -11.015625 C 1.546875 -11.140625 1.59375 -11.25 1.6875 -11.34375 C 1.789062 -11.445312 1.90625 -11.5 2.03125 -11.5 L 6.46875 -11.5 C 7.09375 -11.5 7.648438 -11.363281 8.140625 -11.09375 C 8.640625 -10.832031 9.03125 -10.460938 9.3125 -9.984375 C 9.59375 -9.515625 9.734375 -8.988281 9.734375 -8.40625 C 9.734375 -7.914062 9.644531 -7.46875 9.46875 -7.0625 C 9.289062 -6.65625 9.039062 -6.3125 8.71875 -6.03125 C 8.40625 -5.757812 8.050781 -5.554688 7.65625 -5.421875 L 7.078125 -5.609375 C 7.484375 -5.578125 7.863281 -5.445312 8.21875 -5.21875 C 8.570312 -4.988281 8.851562 -4.679688 9.0625 -4.296875 C 9.28125 -3.910156 9.394531 -3.441406 9.40625 -2.890625 C 9.414062 -2.421875 9.4375 -2.050781 9.46875 -1.78125 C 9.507812 -1.519531 9.566406 -1.320312 9.640625 -1.1875 C 9.722656 -1.0625 9.820312 -0.960938 9.9375 -0.890625 C 10.050781 -0.816406 10.125 -0.71875 10.15625 -0.59375 C 10.195312 -0.476562 10.1875 -0.367188 10.125 -0.265625 C 10.082031 -0.171875 10.019531 -0.101562 9.9375 -0.0625 C 9.851562 -0.03125 9.765625 -0.015625 9.671875 -0.015625 C 9.585938 -0.015625 9.503906 -0.0351562 9.421875 -0.078125 C 9.265625 -0.171875 9.109375 -0.304688 8.953125 -0.484375 C 8.796875 -0.671875 8.664062 -0.945312 8.5625 -1.3125 C 8.457031 -1.675781 8.40625 -2.179688 8.40625 -2.828125 C 8.40625 -3.253906 8.332031 -3.601562 8.1875 -3.875 C 8.050781 -4.15625 7.875 -4.367188 7.65625 -4.515625 C 7.445312 -4.660156 7.210938 -4.765625 6.953125 -4.828125 C 6.703125 -4.890625 6.460938 -4.921875 6.234375 -4.921875 L 2.40625 -4.921875 L 2.578125 -5.140625 L 2.578125 -0.5 C 2.578125 -0.363281 2.53125 -0.242188 2.4375 -0.140625 C 2.351562 -0.046875 2.242188 0 2.109375 0 Z M 2.40625 -5.8125 L 6.53125 -5.8125 C 6.894531 -5.851562 7.242188 -5.976562 7.578125 -6.1875 C 7.910156 -6.40625 8.175781 -6.695312 8.375 -7.0625 C 8.570312 -7.4375 8.671875 -7.867188 8.671875 -8.359375 C 8.671875 -8.984375 8.457031 -9.5 8.03125 -9.90625 C 7.613281 -10.320312 7.066406 -10.53125 6.390625 -10.53125 L 2.46875 -10.53125 L 2.578125 -10.765625 L 2.578125 -5.59375 Z M 2.40625 -5.8125 "/></g></g></g><g fill="#000000" fill-opacity="1"><g transform="translate(192.533372, 212.005127)"><g><path d="M 4.96875 0 C 4.8125 0 4.6875 -0.046875 4.59375 -0.140625 C 4.5 -0.242188 4.453125 -0.363281 4.453125 -0.5 L 4.453125 -10.96875 L 5.46875 -10.96875 L 5.46875 -0.5 C 5.46875 -0.363281 5.414062 -0.242188 5.3125 -0.140625 C 5.21875 -0.046875 5.101562 0 4.96875 0 Z M 1.046875 -10.5625 C 0.921875 -10.5625 0.804688 -10.601562 0.703125 -10.6875 C 0.609375 -10.78125 0.5625 -10.898438 0.5625 -11.046875 C 0.5625 -11.179688 0.609375 -11.289062 0.703125 -11.375 C 0.804688 -11.457031 0.921875 -11.5 1.046875 -11.5 L 8.875 -11.5 C 9.007812 -11.5 9.125 -11.457031 9.21875 -11.375 C 9.320312 -11.289062 9.375 -11.175781 9.375 -11.03125 C 9.375 -10.882812 9.320312 -10.769531 9.21875 -10.6875 C 9.125 -10.601562 9.007812 -10.5625 8.875 -10.5625 Z M 1.046875 -10.5625 "/></g></g></g><g fill="#000000" fill-opacity="1"><g transform="translate(211.735702, 212.005127)"><g><path d="M 5.390625 -10.234375 L 1.390625 -0.3125 C 1.347656 -0.195312 1.285156 -0.113281 1.203125 -0.0625 C 1.128906 -0.0078125 1.046875 0.015625 0.953125 0.015625 C 0.796875 0.015625 0.679688 -0.0234375 0.609375 -0.109375 C 0.535156 -0.191406 0.492188 -0.289062 0.484375 -0.40625 C 0.460938 -0.46875 0.46875 -0.535156 0.5 -0.609375 L 4.828125 -11.234375 C 4.890625 -11.347656 4.957031 -11.429688 5.03125 -11.484375 C 5.113281 -11.535156 5.210938 -11.5625 5.328125 -11.5625 C 5.429688 -11.5625 5.523438 -11.53125 5.609375 -11.46875 C 5.691406 -11.40625 5.753906 -11.328125 5.796875 -11.234375 L 10.125 -0.65625 C 10.144531 -0.59375 10.15625 -0.523438 10.15625 -0.453125 C 10.15625 -0.304688 10.101562 -0.191406 10 -0.109375 C 9.90625 -0.0234375 9.796875 0.015625 9.671875 0.015625 C 9.554688 0.015625 9.457031 -0.015625 9.375 -0.078125 C 9.289062 -0.140625 9.226562 -0.21875 9.1875 -0.3125 L 5.09375 -10.3125 Z M 2.34375 -3.328125 L 2.765625 -4.296875 L 7.859375 -4.296875 L 8.046875 -3.328125 Z M 2.34375 -3.328125 "/></g></g></g><g fill="#000000" fill-opacity="1"><g transform="translate(231.644919, 212.005127)"><g><path d="M 2.578125 -0.515625 C 2.566406 -0.367188 2.507812 -0.242188 2.40625 -0.140625 C 2.300781 -0.046875 2.1875 0 2.0625 0 C 1.90625 0 1.78125 -0.046875 1.6875 -0.140625 C 1.59375 -0.242188 1.546875 -0.367188 1.546875 -0.515625 L 1.546875 -11 C 1.546875 -11.132812 1.59375 -11.25 1.6875 -11.34375 C 1.789062 -11.445312 1.921875 -11.5 2.078125 -11.5 C 2.203125 -11.5 2.316406 -11.445312 2.421875 -11.34375 C 2.523438 -11.25 2.578125 -11.132812 2.578125 -11 Z M 2.578125 -0.515625 "/></g></g></g><g fill="#000000" fill-opacity="1"><g transform="translate(245.027783, 212.005127)"><g><path d="M 9.96875 -11.5 C 10.101562 -11.5 10.210938 -11.457031 10.296875 -11.375 C 10.378906 -11.289062 10.421875 -11.179688 10.421875 -11.046875 L 10.421875 -0.53125 C 10.421875 -0.363281 10.367188 -0.234375 10.265625 -0.140625 C 10.160156 -0.046875 10.039062 0 9.90625 0 C 9.84375 0 9.769531 -0.0078125 9.6875 -0.03125 C 9.613281 -0.0625 9.554688 -0.109375 9.515625 -0.171875 L 2.1875 -10.046875 L 2.46875 -10.1875 L 2.46875 -0.4375 C 2.46875 -0.320312 2.421875 -0.21875 2.328125 -0.125 C 2.242188 -0.0390625 2.132812 0 2 0 C 1.863281 0 1.753906 -0.0390625 1.671875 -0.125 C 1.585938 -0.21875 1.546875 -0.320312 1.546875 -0.4375 L 1.546875 -11.015625 C 1.546875 -11.179688 1.59375 -11.300781 1.6875 -11.375 C 1.789062 -11.457031 1.898438 -11.5 2.015625 -11.5 C 2.085938 -11.5 2.160156 -11.484375 2.234375 -11.453125 C 2.304688 -11.429688 2.367188 -11.390625 2.421875 -11.328125 L 9.671875 -1.5625 L 9.5 -1.265625 L 9.5 -11.046875 C 9.5 -11.179688 9.546875 -11.289062 9.640625 -11.375 C 9.734375 -11.457031 9.84375 -11.5 9.96875 -11.5 Z M 9.96875 -11.5 "/></g></g></g><g fill="#000000" fill-opacity="1"><g transform="translate(266.268571, 212.005127)"><g><path d="M 2.03125 -11.5 C 2.113281 -11.5 2.195312 -11.484375 2.28125 -11.453125 C 2.363281 -11.421875 2.429688 -11.367188 2.484375 -11.296875 L 7.015625 -4.484375 L 6.578125 -4.5 L 11.125 -11.296875 C 11.25 -11.460938 11.398438 -11.53125 11.578125 -11.5 C 11.703125 -11.5 11.8125 -11.453125 11.90625 -11.359375 C 12 -11.273438 12.046875 -11.160156 12.046875 -11.015625 L 12.046875 -0.5 C 12.046875 -0.363281 11.992188 -0.242188 11.890625 -0.140625 C 11.796875 -0.046875 11.679688 0 11.546875 0 C 11.390625 0 11.257812 -0.046875 11.15625 -0.140625 C 11.0625 -0.242188 11.015625 -0.363281 11.015625 -0.5 L 11.015625 -10.015625 L 11.3125 -9.984375 L 7.15625 -3.6875 C 7.113281 -3.613281 7.0625 -3.554688 7 -3.515625 C 6.9375 -3.484375 6.859375 -3.472656 6.765625 -3.484375 C 6.691406 -3.472656 6.617188 -3.484375 6.546875 -3.515625 C 6.472656 -3.554688 6.414062 -3.613281 6.375 -3.6875 L 2.203125 -10.046875 L 2.515625 -10.25 L 2.515625 -0.5 C 2.515625 -0.363281 2.46875 -0.242188 2.375 -0.140625 C 2.28125 -0.046875 2.160156 0 2.015625 0 C 1.878906 0 1.765625 -0.046875 1.671875 -0.140625 C 1.585938 -0.242188 1.546875 -0.363281 1.546875 -0.5 L 1.546875 -11.015625 C 1.546875 -11.140625 1.59375 -11.25 1.6875 -11.34375 C 1.78125 -11.445312 1.894531 -11.5 2.03125 -11.5 Z M 2.03125 -11.5 "/></g></g></g><g fill="#000000" fill-opacity="1"><g transform="translate(289.136841, 212.005127)"><g><path d="M 2.03125 -11.5 L 8.078125 -11.5 C 8.203125 -11.5 8.3125 -11.453125 8.40625 -11.359375 C 8.507812 -11.273438 8.5625 -11.160156 8.5625 -11.015625 C 8.5625 -10.867188 8.507812 -10.75 8.40625 -10.65625 C 8.3125 -10.570312 8.203125 -10.53125 8.078125 -10.53125 L 2.421875 -10.53125 L 2.578125 -10.8125 L 2.578125 -6.203125 L 2.40625 -6.40625 L 7.328125 -6.40625 C 7.460938 -6.40625 7.578125 -6.351562 7.671875 -6.25 C 7.773438 -6.15625 7.828125 -6.046875 7.828125 -5.921875 C 7.828125 -5.773438 7.773438 -5.65625 7.671875 -5.5625 C 7.578125 -5.476562 7.460938 -5.4375 7.328125 -5.4375 L 2.4375 -5.4375 L 2.578125 -5.609375 L 2.578125 -0.875 L 2.5 -0.96875 L 8.078125 -0.96875 C 8.203125 -0.96875 8.3125 -0.914062 8.40625 -0.8125 C 8.507812 -0.71875 8.5625 -0.609375 8.5625 -0.484375 C 8.5625 -0.335938 8.507812 -0.21875 8.40625 -0.125 C 8.3125 -0.0390625 8.203125 0 8.078125 0 L 2.03125 0 C 1.90625 0 1.789062 -0.046875 1.6875 -0.140625 C 1.59375 -0.242188 1.546875 -0.363281 1.546875 -0.5 L 1.546875 -11.015625 C 1.546875 -11.140625 1.59375 -11.25 1.6875 -11.34375 C 1.789062 -11.445312 1.90625 -11.5 2.03125 -11.5 Z M 2.03125 -11.5 "/></g></g></g><g fill="#000000" fill-opacity="1"><g transform="translate(307.74736, 212.005127)"><g><path d="M 9.96875 -11.5 C 10.101562 -11.5 10.210938 -11.457031 10.296875 -11.375 C 10.378906 -11.289062 10.421875 -11.179688 10.421875 -11.046875 L 10.421875 -0.53125 C 10.421875 -0.363281 10.367188 -0.234375 10.265625 -0.140625 C 10.160156 -0.046875 10.039062 0 9.90625 0 C 9.84375 0 9.769531 -0.0078125 9.6875 -0.03125 C 9.613281 -0.0625 9.554688 -0.109375 9.515625 -0.171875 L 2.1875 -10.046875 L 2.46875 -10.1875 L 2.46875 -0.4375 C 2.46875 -0.320312 2.421875 -0.21875 2.328125 -0.125 C 2.242188 -0.0390625 2.132812 0 2 0 C 1.863281 0 1.753906 -0.0390625 1.671875 -0.125 C 1.585938 -0.21875 1.546875 -0.320312 1.546875 -0.4375 L 1.546875 -11.015625 C 1.546875 -11.179688 1.59375 -11.300781 1.6875 -11.375 C 1.789062 -11.457031 1.898438 -11.5 2.015625 -11.5 C 2.085938 -11.5 2.160156 -11.484375 2.234375 -11.453125 C 2.304688 -11.429688 2.367188 -11.390625 2.421875 -11.328125 L 9.671875 -1.5625 L 9.5 -1.265625 L 9.5 -11.046875 C 9.5 -11.179688 9.546875 -11.289062 9.640625 -11.375 C 9.734375 -11.457031 9.84375 -11.5 9.96875 -11.5 Z M 9.96875 -11.5 "/></g></g></g><g fill="#000000" fill-opacity="1"><g transform="translate(328.98816, 212.005127)"><g><path d="M 4.96875 0 C 4.8125 0 4.6875 -0.046875 4.59375 -0.140625 C 4.5 -0.242188 4.453125 -0.363281 4.453125 -0.5 L 4.453125 -10.96875 L 5.46875 -10.96875 L 5.46875 -0.5 C 5.46875 -0.363281 5.414062 -0.242188 5.3125 -0.140625 C 5.21875 -0.046875 5.101562 0 4.96875 0 Z M 1.046875 -10.5625 C 0.921875 -10.5625 0.804688 -10.601562 0.703125 -10.6875 C 0.609375 -10.78125 0.5625 -10.898438 0.5625 -11.046875 C 0.5625 -11.179688 0.609375 -11.289062 0.703125 -11.375 C 0.804688 -11.457031 0.921875 -11.5 1.046875 -11.5 L 8.875 -11.5 C 9.007812 -11.5 9.125 -11.457031 9.21875 -11.375 C 9.320312 -11.289062 9.375 -11.175781 9.375 -11.03125 C 9.375 -10.882812 9.320312 -10.769531 9.21875 -10.6875 C 9.125 -10.601562 9.007812 -10.5625 8.875 -10.5625 Z M 1.046875 -10.5625 "/></g></g></g></svg>